<svg width="162" height="162" viewBox="0 0 162 162" fill="none" xmlns="http://www.w3.org/2000/svg">
<g filter="url(#filter0_d_4118_14701)">
<circle cx="81" cy="77" r="75" fill="white"/>
<circle cx="81" cy="77" r="76" stroke="url(#paint0_linear_4118_14701)" stroke-width="2"/>
</g>
<g filter="url(#filter1_d_4118_14701)">
<circle cx="81" cy="77" r="75" fill="white"/>
<circle cx="81" cy="77" r="76" stroke="#434F61" stroke-width="2"/>
</g>
<path d="M76.75 34.491L43.5813 55.2098H40.375C38.6562 55.2098 37.25 56.616 37.25 58.3348C37.25 60.0535 38.6563 61.4598 40.3719 61.4598V67.7098C38.6531 67.7129 37.25 69.116 37.25 70.8348C37.25 72.5535 38.6562 73.9598 40.375 73.9598H43.5V105.213C42.6353 105.246 41.817 105.613 41.2169 106.236C40.6168 106.86 40.2814 107.691 40.2812 108.557V111.463H40.5937C38.75 111.463 37.25 112.963 37.25 114.807V117.713H124.719V114.807C124.719 112.963 123.219 111.463 121.375 111.463H121.625V108.557C121.625 107.708 121.302 106.89 120.722 106.27C120.142 105.651 119.347 105.275 118.5 105.219V73.9598H121.625C123.344 73.9598 124.75 72.5535 124.75 70.8348C124.75 69.116 123.344 67.7098 121.625 67.7098H121.622V61.4598H121.625C123.344 61.4598 124.75 60.0535 124.75 58.3348C124.75 56.616 123.344 55.2098 121.625 55.2098H118.544L85.375 34.4941C82.75 32.8379 79.375 32.8379 76.75 34.4941V34.491ZM79.4375 60.0848V58.3973C78.9744 58.3349 78.5222 58.2087 78.0938 58.0223C77.2188 57.7098 76.5 57.1473 75.9375 56.3973C75.7573 56.1424 75.6691 55.8339 75.6875 55.5223C75.6875 55.416 75.6969 55.3129 75.7188 55.2098C75.8096 54.8249 76.0444 54.4894 76.375 54.2723C77.0312 53.866 77.75 53.9598 78.3438 54.5535C78.6569 54.8958 79.0269 55.1813 79.4375 55.3973C79.4531 55.416 79.475 55.4223 79.5 55.4285L79.5125 55.4348C80.0203 55.6597 80.5696 55.7757 81.125 55.7754C81.9813 55.7348 82.2906 55.4629 82.4063 55.2129C82.4688 55.066 82.4687 54.9285 82.4687 54.8379C82.4687 54.5566 82.3438 54.3379 82.0625 54.1816C81.7188 53.9941 81.125 53.7754 80.375 53.5879C80.06 53.5028 79.7474 53.409 79.4375 53.3066C79.3312 53.266 79.225 53.2316 79.125 53.1973C78.8372 53.1054 78.5555 52.9958 78.2812 52.8691C77.6875 52.6191 77.1875 52.2441 76.7812 51.7129C76.3438 51.1816 76.125 50.4941 76.125 49.6191C76.125 48.8379 76.3438 48.1816 76.8125 47.5879C77.2188 47.0254 77.7812 46.6191 78.5 46.3066C78.8125 46.1816 79.125 46.0566 79.4375 45.9941V44.1191C79.4375 43.3691 80.0625 42.7129 80.8438 42.7129H81.0625C81.8438 42.7129 82.4687 43.3691 82.4687 44.1191V46.1191C82.6187 46.141 82.75 46.1879 82.8875 46.2348L83 46.2754C83.7812 46.5879 84.4375 47.0254 84.875 47.6191C85.125 47.9004 85.2188 48.2441 85.2188 48.5879C85.2188 49.0254 85.0625 49.4004 84.6875 49.6816C84.125 50.1504 83.25 50.0879 82.75 49.5879C82.6642 49.496 82.5701 49.4123 82.4687 49.3379C82.2938 49.157 82.0801 49.0181 81.8438 48.9316C81.4539 48.7471 81.0246 48.6613 80.5938 48.6816C79.9062 48.6816 79.5938 48.8379 79.4375 49.0254C79.3125 49.1816 79.3125 49.3691 79.3125 49.4941C79.3125 49.6504 79.3438 49.8066 79.4375 49.9316C79.4375 49.9629 79.4688 49.9941 79.5 50.0254C79.6875 50.1816 79.875 50.3066 80.1562 50.4004C80.4375 50.4941 80.875 50.6191 81.4375 50.7754C81.7031 50.8629 81.9531 50.9348 82.1875 51.0035L82.4687 51.0879C82.8437 51.2129 83.1563 51.3379 83.4375 51.4629C84 51.7441 84.5 52.1191 84.875 52.6504C85.2812 53.1816 85.5 53.8691 85.5 54.7441C85.5055 55.494 85.2516 56.2226 84.7812 56.8066C84.3248 57.3844 83.7199 57.8273 83.0312 58.0879C82.8438 58.1816 82.6562 58.2441 82.4687 58.2754V60.0879C82.4687 60.7598 81.9688 61.3285 81.3 61.441H80.6062C80.2826 61.3894 79.9878 61.2249 79.7739 60.9766C79.5599 60.7284 79.4408 60.4124 79.4375 60.0848ZM96.275 55.2098C96.8369 52.4639 96.6546 49.6177 95.7469 46.966L109.028 55.2129H96.2781L96.275 55.2098ZM66.0531 47.1879C65.2059 49.7778 65.0497 52.5441 65.6 55.2129H53.1312L66.0531 47.1879ZM56 105.213H52.875V73.9629H56V105.213ZM71.625 105.213H65.375V73.9629H96.625V105.213H90.375V85.3379C90.375 84.2441 89.4688 83.3379 88.375 83.3379H73.5938C72.5 83.3379 71.625 84.2129 71.625 85.3066V105.213ZM106 73.9629H109.125V105.213H106V73.9629Z" fill="#434F61"/>
<defs>
<filter id="filter0_d_4118_14701" x="0" y="0" width="162" height="162" filterUnits="userSpaceOnUse" color-interpolation-filters="sRGB">
<feFlood flood-opacity="0" result="BackgroundImageFix"/>
<feColorMatrix in="SourceAlpha" type="matrix" values="0 0 0 0 0 0 0 0 0 0 0 0 0 0 0 0 0 0 127 0" result="hardAlpha"/>
<feOffset dy="4"/>
<feGaussianBlur stdDeviation="2"/>
<feComposite in2="hardAlpha" operator="out"/>
<feColorMatrix type="matrix" values="0 0 0 0 0 0 0 0 0 0 0 0 0 0 0 0 0 0 0.25 0"/>
<feBlend mode="normal" in2="BackgroundImageFix" result="effect1_dropShadow_4118_14701"/>
<feBlend mode="normal" in="SourceGraphic" in2="effect1_dropShadow_4118_14701" result="shape"/>
</filter>
<filter id="filter1_d_4118_14701" x="0" y="0" width="162" height="162" filterUnits="userSpaceOnUse" color-interpolation-filters="sRGB">
<feFlood flood-opacity="0" result="BackgroundImageFix"/>
<feColorMatrix in="SourceAlpha" type="matrix" values="0 0 0 0 0 0 0 0 0 0 0 0 0 0 0 0 0 0 127 0" result="hardAlpha"/>
<feOffset dy="4"/>
<feGaussianBlur stdDeviation="2"/>
<feComposite in2="hardAlpha" operator="out"/>
<feColorMatrix type="matrix" values="0 0 0 0 0 0 0 0 0 0 0 0 0 0 0 0 0 0 0.25 0"/>
<feBlend mode="normal" in2="BackgroundImageFix" result="effect1_dropShadow_4118_14701"/>
<feBlend mode="normal" in="SourceGraphic" in2="effect1_dropShadow_4118_14701" result="shape"/>
</filter>
<linearGradient id="paint0_linear_4118_14701" x1="81" y1="2" x2="81" y2="152" gradientUnits="userSpaceOnUse">
<stop stop-color="#61DE9F"/>
<stop offset="1" stop-color="#FF9F9F"/>
</linearGradient>
</defs>
</svg>
