<svg width="30" height="30" viewBox="0 0 30 30" fill="none" xmlns="http://www.w3.org/2000/svg">
<g clip-path="url(#clip0_4118_14602)">
<path d="M27.5723 7.72445C27.5569 6.91449 27.5422 6.14934 27.5422 5.4091C27.5422 4.82918 27.0722 4.35903 26.4921 4.35903C22.0013 4.35903 18.5821 3.06841 15.7321 0.297329C15.3244 -0.0991798 14.6755 -0.0990398 14.268 0.297329C11.4182 3.06841 7.99958 4.35903 3.50903 4.35903C2.92911 4.35903 2.45895 4.82918 2.45895 5.4091C2.45895 6.14948 2.44439 6.91491 2.42885 7.72501C2.28492 15.2626 2.08779 25.5857 14.6561 29.9421C14.7675 29.9808 14.8837 30.0001 15 30.0001C15.1162 30.0001 15.2325 29.9808 15.3438 29.9421C27.9131 25.5856 27.7162 15.2622 27.5723 7.72445ZM15.0001 27.8357C4.22112 23.92 4.38409 15.3423 4.52873 7.76506C4.53741 7.3103 4.54581 6.86955 4.55169 6.43748C8.7576 6.25995 12.1209 4.98543 15.0001 2.47729C17.8795 4.98543 21.2434 6.26009 25.4496 6.43748C25.4555 6.86941 25.4639 7.30988 25.4726 7.76436C25.6171 15.3419 25.7799 23.9199 15.0001 27.8357Z" fill="#CA000F"/>
<path d="M18.6153 11.3524L13.5471 16.4204L11.3843 14.2576C10.9742 13.8477 10.3093 13.8477 9.89936 14.2576C9.48927 14.6679 9.48927 15.3326 9.89936 15.7427L12.8046 18.6479C13.0096 18.8529 13.2784 18.9554 13.5471 18.9554C13.8157 18.9554 14.0846 18.8529 14.2895 18.6479L20.1001 12.8375C20.5103 12.4274 20.5103 11.7625 20.1002 11.3526C19.6903 10.9425 19.0254 10.9423 18.6153 11.3524Z" fill="#CA000F"/>
</g>
<defs>
<clipPath id="clip0_4118_14602">
<rect width="30" height="30" fill="white"/>
</clipPath>
</defs>
</svg>
