<svg width="77" height="77" viewBox="0 0 77 77" fill="none" xmlns="http://www.w3.org/2000/svg">
<path d="M26.5 46.6906C26.9625 51.9 31.2281 55.5969 37.7219 56.075V59.875H40.9812V56.075C48.075 55.5156 52.475 51.5812 52.475 45.7625C52.475 40.7938 49.5156 37.9187 43.2375 36.3L40.9812 35.7156V23.8344C44.4875 24.1781 46.8531 26.0656 47.45 28.8844H52.0437C51.525 23.8844 47.2312 20.2969 40.9812 19.9V16.125H37.7219V19.9781C31.6625 20.6969 27.5031 24.5781 27.5031 29.8406C27.5031 34.3844 30.5219 37.6 35.8187 38.9562L37.725 39.4625V52.0594C34.1344 51.5281 31.6625 49.5594 31.0656 46.6906H26.5ZM37.0969 34.7031C33.8375 33.8813 32.0969 32.125 32.0969 29.6531C32.0969 26.7031 34.2969 24.525 37.7219 23.9406V34.8625L37.0969 34.7031ZM42.0688 40.5531C46.0906 41.5625 47.8562 43.2375 47.8562 46.0813C47.8562 49.5094 45.275 51.7937 40.9812 52.1406V40.2812L42.0688 40.55V40.5531Z" fill="#CA000F"/>
<path d="M20 1.5H57C67.2173 1.5 75.5 9.78273 75.5 20V57C75.5 67.2173 67.2173 75.5 57 75.5H20C9.78273 75.5 1.5 67.2173 1.5 57V20C1.5 9.78273 9.78273 1.5 20 1.5Z" stroke="#CA000F" stroke-width="3"/>
</svg>
