<svg width="35" height="35" viewBox="0 0 35 35" fill="none" xmlns="http://www.w3.org/2000/svg">
<path d="M27.7087 2.91699V5.83366H17.5003C16.7268 5.83366 15.9849 6.14095 15.4379 6.68793C14.8909 7.23491 14.5837 7.97678 14.5837 8.75033V13.1253H17.5003V8.75033H27.7087V11.667L32.0837 7.29199L27.7087 2.91699ZM27.7087 13.1253V16.042H20.417V18.9587H27.7087V21.8753L32.0837 17.5003L27.7087 13.1253ZM16.1149 14.5837C14.4962 14.5837 13.1837 15.8524 13.1691 17.5003C13.1545 19.1482 14.4378 20.417 16.042 20.417C17.6607 20.417 18.9587 19.1191 18.9587 17.5003C18.9587 15.9107 17.6899 14.6274 16.1149 14.5837ZM2.91699 16.042V18.9587H11.667V16.042H2.91699ZM14.5837 21.8753V26.2503C14.5837 27.0239 14.8909 27.7657 15.4379 28.3127C15.9849 28.8597 16.7268 29.167 17.5003 29.167H27.7087V32.0837L32.0837 27.7087L27.7087 23.3337V26.2503H17.5003V21.8753H14.5837Z" fill="#CA000F"/>
</svg>
