<svg width="35" height="35" viewBox="0 0 35 35" fill="none" xmlns="http://www.w3.org/2000/svg">
<path d="M10.208 21.875H13.1247C13.1247 23.45 15.1226 24.7917 17.4997 24.7917C19.8768 24.7917 21.8747 23.45 21.8747 21.875C21.8747 20.2708 20.358 19.6875 17.1497 18.9146C14.058 18.1417 10.208 17.1792 10.208 13.125C10.208 10.5146 12.3518 8.29792 15.3122 7.55417V4.375H19.6872V7.55417C22.6476 8.29792 24.7913 10.5146 24.7913 13.125H21.8747C21.8747 11.55 19.8768 10.2083 17.4997 10.2083C15.1226 10.2083 13.1247 11.55 13.1247 13.125C13.1247 14.7292 14.6413 15.3125 17.8497 16.0854C20.9413 16.8583 24.7913 17.8208 24.7913 21.875C24.7913 24.4854 22.6476 26.7021 19.6872 27.4458V30.625H15.3122V27.4458C12.3518 26.7021 10.208 24.4854 10.208 21.875Z" fill="#CB2127"/>
</svg>
