<svg width="35" height="35" viewBox="0 0 35 35" fill="none" xmlns="http://www.w3.org/2000/svg">
<path d="M22.7705 4.25098L1.66865 8.01895L1.66113 10.1107L23.1328 6.27031L22.7705 4.25098ZM15.791 8.83242L13.7402 9.20156V20.1664H15.791V8.83242ZM4.85352 10.7875L2.80273 11.1566V20.1664H4.85352V10.7875ZM21.3623 12.7152C20.7744 13.1322 20.8838 14.3627 21.6016 15.4564C20.125 15.9691 18.4844 16.6322 17.0215 17.2064V20.1664H18.1152V26.3803C20.9385 24.9584 23.2012 22.7777 25.416 20.2963C25.7305 21.8549 27.7334 22.0668 28.9092 22.2582C28.9092 22.2582 28.9707 23.1674 29.3877 23.5297C30.0166 24.0629 31.0352 24.4457 31.7529 24.0355C32.416 23.6527 32.3818 22.2787 32.375 22.0326C32.3613 21.5199 31.876 21.1371 31.4248 20.9389C30.1943 18.5463 27.501 14.7387 25.2178 14.5746C24.9033 14.5541 24.4521 14.6225 23.9189 14.7455C22.9824 14.1166 21.7246 13.1254 21.3623 12.7152ZM12.5098 18.6283C9.80273 18.7924 7.75879 18.8061 6.08398 18.8334V20.1664H12.5098V18.6283ZM1.70898 21.3969V24.5414H16.8848V21.3969H1.70898ZM1.70898 25.7719V28.9164H16.8848V25.7719H1.70898ZM1.70898 30.1469V33.2914H16.8848V30.1469H1.70898Z" fill="#000080"/>
</svg>
