<svg id="Calque_1" data-name="Calque 1" xmlns="http://www.w3.org/2000/svg" viewBox="0 0 84.74 18.84"><defs><style>.cls-1{fill:#d45d01;}.cls-2{fill:#123054;}.cls-3{fill:#fff;}</style></defs><polygon class="cls-1" points="16.11 0 16.11 5.4 8.05 5.4 8.05 10.79 0 10.79 0 0 16.11 0"/><polygon class="cls-2" points="24.16 5.4 24.16 16.19 8.05 16.19 8.05 10.79 16.11 10.79 16.11 5.4 24.16 5.4"/><rect class="cls-3" x="8.05" y="5.4" width="8.05" height="5.4"/><path class="cls-2" d="M42.46,9H39.61c-.66,0-.9.22-.9,1v1.27h3.64a.29.29,0,0,1,.28.28v1.34a.29.29,0,0,1-.28.28H38.71v4.11a.29.29,0,0,1-.29.28H36.6a.29.29,0,0,1-.29-.28V10c0-2.56,1.62-3,3.44-3a16,16,0,0,1,2.71.19c.2,0,.28.09.28.28V8.75A.28.28,0,0,1,42.46,9Z" transform="translate(-8.5 -1.25)"/><path class="cls-2" d="M50.91,14.55H46.43v0A1.26,1.26,0,0,0,47.87,16c.89,0,2.14-.07,2.71-.12h0c.15,0,.27.07.27.21v1c0,.2-.06.29-.3.34a12,12,0,0,1-2.88.3c-1.71,0-3.54-.81-3.54-3.25v-.88c0-2,1.33-3.33,3.56-3.33a3.15,3.15,0,0,1,3.48,3.33v.73A.27.27,0,0,1,50.91,14.55ZM49,13.24c0-.94-.48-1.41-1.27-1.41a1.24,1.24,0,0,0-1.29,1.41v0H49Z" transform="translate(-8.5 -1.25)"/><path class="cls-2" d="M59.21,14.55H54.72v0A1.27,1.27,0,0,0,56.17,16c.89,0,2.14-.07,2.7-.12h.05c.15,0,.26.07.26.21v1c0,.2,0,.29-.29.34a12,12,0,0,1-2.89.3c-1.7,0-3.53-.81-3.53-3.25v-.88c0-2,1.32-3.33,3.56-3.33a3.15,3.15,0,0,1,3.48,3.33v.73A.28.28,0,0,1,59.21,14.55Zm-1.93-1.31c0-.94-.48-1.41-1.26-1.41a1.25,1.25,0,0,0-1.3,1.41v0h2.56Z" transform="translate(-8.5 -1.25)"/><path class="cls-2" d="M67.84,17.54H65.72c-.15,0-.24-.08-.37-.27l-1.39-2-1.31,2c-.12.19-.21.25-.36.25H60.4a.14.14,0,0,1-.15-.15.13.13,0,0,1,0-.1l2.46-3.52-2.39-3.21a.13.13,0,0,1,0-.08.21.21,0,0,1,.21-.19h2.09c.16,0,.24.1.37.27l1.25,1.74,1.16-1.74c.12-.19.21-.27.36-.27h1.89a.17.17,0,0,1,.17.17.14.14,0,0,1,0,.1l-2.32,3.31L68,17.27a.14.14,0,0,1,0,.09A.19.19,0,0,1,67.84,17.54Z" transform="translate(-8.5 -1.25)"/><path class="cls-1" d="M73,13.88c-.34,0-.79,0-1.14,0v3.42a.29.29,0,0,1-.28.28H69.75a.27.27,0,0,1-.28-.27V7.82c0-.48.2-.61.63-.68A21.29,21.29,0,0,1,73,7c2.12,0,4.22.75,4.22,3.39v.13C77.18,13.11,75.08,13.88,73,13.88Zm1.8-3.53c0-1-.62-1.39-1.8-1.39L71.85,9v2.87l1.14,0c1.25,0,1.8-.47,1.8-1.42Z" transform="translate(-8.5 -1.25)"/><path class="cls-1" d="M84.42,17.54H82.85a.28.28,0,0,1-.29-.25v-.21a3.27,3.27,0,0,1-2,.57c-1.23,0-2.41-.53-2.41-2.17v-.12c0-1.48,1.06-2.13,3.46-2.13h.76v-.46c0-.72-.39-.87-1-.87-.9,0-1.9,0-2.34.09H79a.22.22,0,0,1-.25-.23v-1c0-.14.1-.24.27-.27a12,12,0,0,1,2.43-.27c2,0,3.29.73,3.29,2.58v4.52A.27.27,0,0,1,84.42,17.54Zm-2-3.1h-.81c-1,0-1.23.3-1.23.92v.12c0,.53.29.63.88.63a2.91,2.91,0,0,0,1.16-.28Z" transform="translate(-8.5 -1.25)"/><path class="cls-1" d="M93.22,10.58,90.86,18c-.44,1.37-1,2.06-3.08,2.06a8.18,8.18,0,0,1-1.7-.2c-.16-.05-.3-.09-.3-.23v-1a.26.26,0,0,1,.28-.24h0c.47,0,1.3.1,1.76.1a.82.82,0,0,0,.93-.66l.13-.39h-.22c-.52,0-1-.07-1.3-1.18l-1.86-5.69a.31.31,0,0,1,0-.09c0-.12.08-.2.28-.2h1.87a.27.27,0,0,1,.26.24l1.27,4.76c0,.17.09.24.17.24h.13l1.3-5a.31.31,0,0,1,.3-.24H93a.26.26,0,0,1,.27.23S93.22,10.56,93.22,10.58Z" transform="translate(-8.5 -1.25)"/></svg>