<svg id="Calque_1" data-name="Calque 1" xmlns="http://www.w3.org/2000/svg" viewBox="0 0 77.66 10.87"><defs><style>.cls-1{fill:#112c56;}.cls-2{fill:#d45d01;}</style></defs><path class="cls-1" d="M18.57,7H15.73c-.66,0-.9.22-.9,1V9.24h3.63a.29.29,0,0,1,.28.28v1.33a.28.28,0,0,1-.28.28H14.83v4.09a.28.28,0,0,1-.28.28H12.73a.27.27,0,0,1-.28-.28V8c0-2.55,1.61-3,3.42-3a16.36,16.36,0,0,1,2.7.18c.19,0,.28.1.28.28V6.75A.29.29,0,0,1,18.57,7Z" transform="translate(-12.45 -4.76)"/><path class="cls-1" d="M26.56,12.2H22.09v0a1.34,1.34,0,0,0,1.45,1.53c.88,0,2.13-.07,2.69-.13h0c.15,0,.26.07.26.23v1.06c0,.23-.05.33-.29.38a10.46,10.46,0,0,1-2.87.34A3.28,3.28,0,0,1,19.85,12v-1A3.35,3.35,0,0,1,23.4,7.36c2.29,0,3.46,1.57,3.46,3.69v.81A.3.3,0,0,1,26.56,12.2Zm-1.92-1.46c0-1-.47-1.56-1.26-1.56s-1.29.54-1.29,1.56v.06h2.55Z" transform="translate(-12.45 -4.76)"/><path class="cls-1" d="M34.82,12.2H30.35v0a1.34,1.34,0,0,0,1.45,1.53c.88,0,2.13-.07,2.69-.13h0c.15,0,.26.07.26.23v1.06c0,.23,0,.33-.29.38a10.46,10.46,0,0,1-2.87.34A3.28,3.28,0,0,1,28.11,12v-1a3.35,3.35,0,0,1,3.55-3.69c2.29,0,3.46,1.57,3.46,3.69v.81A.3.3,0,0,1,34.82,12.2ZM32.9,10.74c0-1-.47-1.56-1.26-1.56s-1.29.54-1.29,1.56v.06H32.9Z" transform="translate(-12.45 -4.76)"/><path class="cls-1" d="M43.42,15.5H41.3c-.15,0-.23-.08-.36-.29L39.55,13l-1.3,2.18c-.13.21-.21.28-.36.28H36a.16.16,0,0,1-.16-.17.18.18,0,0,1,0-.11l2.45-3.89L36,7.77a.31.31,0,0,1,0-.08.21.21,0,0,1,.21-.21h2.08c.16,0,.24.11.37.29L39.83,9.7,41,7.77c.13-.21.21-.29.37-.29h1.87a.17.17,0,0,1,.17.18.15.15,0,0,1,0,.11l-2.31,3.67,2.54,3.77a.24.24,0,0,1,0,.1A.21.21,0,0,1,43.42,15.5Z" transform="translate(-12.45 -4.76)"/><path class="cls-2" d="M54.27,15.5H52.42c-.13,0-.22-.12-.22-.28V9.38c0-.1-.05-.11-.07-.11s-.07,0-.12.1l-1.26,2.31a.43.43,0,0,1-.42.24H49.21a.45.45,0,0,1-.42-.24L47.53,9.37c0-.07-.07-.1-.11-.1s-.07,0-.07.11v5.84a.25.25,0,0,1-.22.28H45.28c-.12,0-.24,0-.24-.19V5.57a.47.47,0,0,1,.5-.48h1.32a.67.67,0,0,1,.62.38l2.14,4c.06.12.1.19.15.19s.1-.07.16-.19l2.14-4a.66.66,0,0,1,.62-.38H54a.48.48,0,0,1,.51.49v9.73C54.51,15.46,54.38,15.5,54.27,15.5Z" transform="translate(-12.45 -4.76)"/><path class="cls-2" d="M62.23,15.5H60.67a.28.28,0,0,1-.29-.28V15a3.07,3.07,0,0,1-1.94.63A2.19,2.19,0,0,1,56,13.22v-.13c0-1.64,1.05-2.36,3.45-2.36h.76v-.51c0-.8-.4-1-1.06-1-.89,0-1.89.06-2.32.1H56.8a.23.23,0,0,1-.25-.25V8a.31.31,0,0,1,.26-.31,11,11,0,0,1,2.43-.3c2,0,3.27.82,3.27,2.86v5A.27.27,0,0,1,62.23,15.5Zm-1.94-3.43h-.8c-1,0-1.23.34-1.23,1v.13c0,.59.29.7.88.7a2.59,2.59,0,0,0,1.15-.31Z" transform="translate(-12.45 -4.76)"/><path class="cls-2" d="M68.38,9.24h-.11a3.78,3.78,0,0,0-1.81.49v5.48a.3.3,0,0,1-.28.29h-1.7a.3.3,0,0,1-.29-.29V7.76a.28.28,0,0,1,.28-.28h1.67a.28.28,0,0,1,.28.28V8a3,3,0,0,1,1.89-.68.29.29,0,0,1,.28.28V9C68.59,9.1,68.5,9.24,68.38,9.24Z" transform="translate(-12.45 -4.76)"/><path class="cls-2" d="M76.65,7.77l-2.6,3.54,2.59,3.9a.14.14,0,0,1,0,.11.17.17,0,0,1-.18.18H74.37a.36.36,0,0,1-.35-.19L72,12v3.2a.29.29,0,0,1-.28.29H70a.31.31,0,0,1-.3-.29V5a.29.29,0,0,1,.3-.28h1.69A.27.27,0,0,1,72,5v5.85l2.13-3.2a.42.42,0,0,1,.37-.21h2c.13,0,.21.07.21.15A.2.2,0,0,1,76.65,7.77Z" transform="translate(-12.45 -4.76)"/><path class="cls-2" d="M83.91,12.2H79.44v0a1.34,1.34,0,0,0,1.44,1.53c.88,0,2.13-.07,2.69-.13h0c.16,0,.27.07.27.23v1.06c0,.23-.06.33-.3.38a10.41,10.41,0,0,1-2.87.34A3.28,3.28,0,0,1,77.2,12v-1a3.34,3.34,0,0,1,3.54-3.69c2.3,0,3.46,1.57,3.46,3.69v.81C84.2,12.07,84.09,12.2,83.91,12.2ZM82,10.74c0-1-.48-1.56-1.26-1.56s-1.29.54-1.29,1.56v.06H82Z" transform="translate(-12.45 -4.76)"/><path class="cls-2" d="M89.84,15.52a6.05,6.05,0,0,1-1.11.11c-1.54,0-2.35-.41-2.35-2.4V9.17L85.26,9a.33.33,0,0,1-.29-.3V7.77a.3.3,0,0,1,.29-.29h1.12V6.33a.29.29,0,0,1,.28-.28l1.71-.3h0a.25.25,0,0,1,.26.24V7.48h1.14a.27.27,0,0,1,.28.28V8.89a.28.28,0,0,1-.28.28H88.67v4.08c0,.56,0,.66.46.66h.68c.19,0,.3.08.3.23v1.1A.29.29,0,0,1,89.84,15.52Z" transform="translate(-12.45 -4.76)"/></svg>