<svg width="40" height="41" viewBox="0 0 40 41" fill="none" xmlns="http://www.w3.org/2000/svg">
<g clip-path="url(#clip0_4118_14784)">
<path d="M37.5776 0.0996094H2.42188V23.5368H10.6249V27.8791C10.6249 33.4884 14.3469 38.4753 19.6762 40.0066L19.9998 40.0995L20.3233 40.0066C25.6526 38.4753 29.3746 33.4883 29.3746 27.8791V23.5368H37.5776V0.0996094ZM35.2339 2.44333V4.78705H4.76559V2.44333H35.2339ZM27.0309 27.8791C27.0309 32.3344 24.1566 36.3057 19.9998 37.655C15.8429 36.3057 12.9686 32.3344 12.9686 27.8791V23.5368H16.4842C17.8827 23.5368 19.1402 22.9211 19.9998 21.9467C20.8594 22.9212 22.1168 23.5368 23.5153 23.5368H27.0309V27.8791ZM23.5153 21.1931C22.223 21.1931 21.1716 20.1417 21.1716 18.8494H18.8279C18.8279 20.1417 17.7765 21.1931 16.4842 21.1931C15.9664 21.1931 5.28387 21.1931 4.76559 21.1931V7.13076H35.2339V21.1931C34.7169 21.1931 24.0347 21.1931 23.5153 21.1931Z" fill="#1F4B3F"/>
<path d="M20.503 25.202L19.9999 24.9629L19.4969 25.202C18.5498 25.6522 17.5362 25.8805 16.4844 25.8805H15.3125V27.8786C15.3125 30.762 16.8962 33.4033 19.4458 34.7715L19.9999 35.0689L20.5541 34.7715C23.1036 33.4032 24.6874 30.762 24.6874 27.8786V25.8805H23.5155C22.4637 25.8805 21.4501 25.6522 20.503 25.202ZM19.9999 32.3659C18.6139 31.3978 17.7472 29.8467 17.6629 28.151C18.4653 28.0504 19.2468 27.8464 19.9999 27.5404C20.7529 27.8464 21.5344 28.0504 22.3369 28.151C22.2526 29.8467 21.3859 31.3978 19.9999 32.3659Z" fill="#1F4B3F"/>
<path d="M25.8594 14.1621H32.8905V16.5058H25.8594V14.1621Z" fill="#1F4B3F"/>
</g>
<defs>
<clipPath id="clip0_4118_14784">
<rect width="40" height="40" fill="white" transform="translate(0 0.0996094)"/>
</clipPath>
</defs>
</svg>
