<svg width="24" height="24" viewBox="0 0 24 24" fill="none" xmlns="http://www.w3.org/2000/svg">
<g clip-path="url(#clip0_4064_1999)">
<path d="M2.21374 14.0598C1.92615 12.7015 1.92615 11.298 2.21374 9.93976C3.32374 10.0698 4.29374 9.70276 4.60974 8.93876C4.92674 8.17376 4.50174 7.22876 3.62374 6.53576C4.38078 5.37209 5.37306 4.3798 6.53674 3.62276C7.22874 4.49976 8.17474 4.92576 8.93974 4.60876C9.70474 4.29176 10.0717 3.32276 9.94074 2.21276C11.299 1.92517 12.7025 1.92517 14.0607 2.21276C13.9307 3.32276 14.2977 4.29276 15.0617 4.60876C15.8267 4.92576 16.7717 4.50076 17.4647 3.62276C18.6284 4.3798 19.6207 5.37209 20.3777 6.53576C19.5007 7.22776 19.0747 8.17376 19.3917 8.93876C19.7087 9.70376 20.6777 10.0708 21.7877 9.93976C22.0753 11.298 22.0753 12.7015 21.7877 14.0598C20.6777 13.9298 19.7077 14.2968 19.3917 15.0608C19.0747 15.8258 19.4997 16.7708 20.3777 17.4638C19.6207 18.6274 18.6284 19.6197 17.4647 20.3768C16.7727 19.4998 15.8267 19.0738 15.0617 19.3908C14.2967 19.7078 13.9297 20.6768 14.0607 21.7868C12.7025 22.0744 11.299 22.0744 9.94074 21.7868C10.0707 20.6768 9.70374 19.7068 8.93974 19.3908C8.17474 19.0738 7.22974 19.4988 6.53674 20.3768C5.37306 19.6197 4.38078 18.6274 3.62374 17.4638C4.50074 16.7718 4.92674 15.8258 4.60974 15.0608C4.29274 14.2958 3.32374 13.9288 2.21374 14.0598ZM4.00074 12.2098C5.10074 12.5148 6.00774 13.2118 6.45774 14.2958C6.90674 15.3808 6.75774 16.5158 6.19574 17.5078C6.29174 17.6098 6.39074 17.7088 6.49274 17.8048C7.48574 17.2428 8.61974 17.0948 9.70474 17.5428C10.7887 17.9928 11.4857 18.8998 11.7907 19.9998C11.9307 20.0038 12.0707 20.0038 12.2107 19.9998C12.5157 18.8998 13.2127 17.9928 14.2967 17.5428C15.3817 17.0938 16.5167 17.2428 17.5087 17.8048C17.6107 17.7088 17.7097 17.6098 17.8057 17.5078C17.2437 16.5148 17.0957 15.3808 17.5437 14.2958C17.9937 13.2118 18.9007 12.5148 20.0007 12.2098C20.0047 12.0698 20.0047 11.9298 20.0007 11.7898C18.9007 11.4848 17.9937 10.7878 17.5437 9.70376C17.0947 8.61876 17.2437 7.48376 17.8057 6.49176C17.7094 6.39016 17.6103 6.29112 17.5087 6.19476C16.5157 6.75676 15.3817 6.90476 14.2967 6.45676C13.2127 6.00676 12.5157 5.09976 12.2107 3.99976C12.0708 3.99606 11.9307 3.99606 11.7907 3.99976C11.4857 5.09976 10.7887 6.00676 9.70474 6.45676C8.61974 6.90576 7.48474 6.75676 6.49274 6.19476C6.39074 6.29076 6.29174 6.38976 6.19574 6.49176C6.75774 7.48476 6.90574 8.61876 6.45774 9.70376C6.00774 10.7878 5.10074 11.4848 4.00074 11.7898C3.99674 11.9298 3.99674 12.0698 4.00074 12.2098ZM12.0007 14.9998C11.2051 14.9998 10.442 14.6837 9.87942 14.1211C9.31681 13.5585 9.00074 12.7954 9.00074 11.9998C9.00074 11.2041 9.31681 10.4411 9.87942 9.87844C10.442 9.31583 11.2051 8.99976 12.0007 8.99976C12.7964 8.99976 13.5595 9.31583 14.1221 9.87844C14.6847 10.4411 15.0007 11.2041 15.0007 11.9998C15.0007 12.7954 14.6847 13.5585 14.1221 14.1211C13.5595 14.6837 12.7964 14.9998 12.0007 14.9998ZM12.0007 12.9998C12.266 12.9998 12.5203 12.8944 12.7078 12.7069C12.8954 12.5193 13.0007 12.265 13.0007 11.9998C13.0007 11.7345 12.8954 11.4802 12.7078 11.2927C12.5203 11.1051 12.266 10.9998 12.0007 10.9998C11.7355 10.9998 11.4812 11.1051 11.2936 11.2927C11.1061 11.4802 11.0007 11.7345 11.0007 11.9998C11.0007 12.265 11.1061 12.5193 11.2936 12.7069C11.4812 12.8944 11.7355 12.9998 12.0007 12.9998Z" fill="#CCCCCC"/>
</g>
<defs>
<clipPath id="clip0_4064_1999">
<rect width="24" height="24" fill="white"/>
</clipPath>
</defs>
</svg>
