<svg width="162" height="162" viewBox="0 0 162 162" fill="none" xmlns="http://www.w3.org/2000/svg">
<g filter="url(#filter0_d_4118_14660)">
<circle cx="81" cy="77" r="75" fill="white"/>
<circle cx="81" cy="77" r="76" stroke="url(#paint0_linear_4118_14660)" stroke-width="2"/>
</g>
<g filter="url(#filter1_d_4118_14660)">
<circle cx="81" cy="77" r="75" fill="white"/>
<circle cx="81" cy="77" r="76" stroke="url(#paint1_linear_4118_14660)" stroke-width="2"/>
</g>
<path d="M52.0619 57.8203C51.476 53.3828 50.4838 45.5624 51.1401 41.2578C51.7963 36.9531 53.5151 32.9843 57.101 31.414C60.2026 30.0624 64.0697 31.4921 66.3041 34.8359C67.5776 36.7421 68.3041 39.0937 68.9213 41.4218C69.976 45.4218 70.9838 50.8906 71.4916 55.0078" stroke="#00796B" stroke-width="1.17188" stroke-miterlimit="10"/>
<path d="M54.9922 118.125L36.1094 110.258L40.4922 90.9297L39.5547 46.8828L87.3359 41.2734V45.4453L98.7031 46.8828L54.9922 118.125Z" fill="#26A69A"/>
<path d="M102.758 110.938L54.9844 118.172L50.9219 92.875V54.1094L98.7031 46.8828V85.6406L102.758 110.938Z" fill="#61DE9F"/>
<path d="M50.9219 54.1094V49.75L39.5547 46.8828L87.4297 41.5703L88.9609 44.9609L98.7031 46.8828L50.9219 54.1094Z" fill="#263238"/>
<path d="M36.1094 110.258C36.4375 110.258 47.4219 101.547 47.4219 101.547L54.9844 118.172L53.3594 91.6641L50.8984 54.1094L47.7031 94.6953L36.1094 110.258Z" fill="#00796B"/>
<path d="M87.2891 42.0703L88.4453 44.7422L88.5938 45.0938L88.9609 45.1875L94.7812 46.6797L51.7031 53.2031V49.1406L51.1094 48.9922L43.8594 47.1641L87.2891 42.0703ZM87.7812 41.2266L39.5625 46.8828L50.9297 49.75V54.1172L98.7031 46.8828L89.1641 44.4297L87.7812 41.2266Z" fill="#26A69A"/>
<path d="M65.3353 57.0386C64.7494 52.6089 58.6478 35.5933 70.3275 33.4214C79.1556 31.7808 83.0541 50.5855 83.5697 54.7105" stroke="#61DE9F" stroke-width="1.17188" stroke-miterlimit="10"/>
<path d="M66.7891 58.2734C66.1094 55.9844 65.3984 51.3594 65.3672 51.1562L67.6797 50.8047C67.6875 50.8516 68.5156 55.5703 69.4219 57.7812L66.7891 58.2734ZM85.0078 55.5C84.3281 53.2109 83.6172 48.5859 83.5859 48.3828L85.8984 48.0312C85.9062 48.0781 86.8672 52.875 87.6719 55.0156L85.0078 55.5ZM67.5937 116.266L74.1562 104.898L71.0234 74.5937L97.25 69.4922L83.1875 113.937L67.5937 116.266Z" fill="#26A69A"/>
<path d="M88.0856 71.57C88.0856 71.57 85.1325 55.8903 94.9684 56.9293C100.32 57.4918 100.101 69.9371 100.101 69.9371" stroke="#D7578A" stroke-width="1.17188" stroke-miterlimit="10"/>
<path d="M89.1719 123.867L74.6641 117.797L78.0391 102.937L77.3203 69.0781L114.039 64.7656V67.9766L122.773 69.0781L89.1719 123.867Z" fill="#D7578A"/>
<path d="M125.891 118.312L89.1719 123.875L86.0547 104.43V74.6406L122.773 69.0781V98.875L125.891 118.312Z" fill="#FF9F9F"/>
<path d="M86.0547 74.6406L83.1172 72.3906L77.3203 69.0781L114.039 64.7656L117.375 66.8672L122.773 69.0781L86.0547 74.6406Z" fill="#263238"/>
<path d="M113.898 65.5703L120.188 68.6719L86.2188 73.8125L79.5859 69.5938L113.898 65.5703ZM114.039 64.7656L77.3203 69.0781L86.0547 74.6406L122.773 69.0781L114.039 64.7656Z" fill="#D7578A"/>
<path d="M98.4687 77.6328C97.9453 75.8828 97.4062 72.3281 97.3828 72.1797L99.4453 71.9141C99.4531 71.9531 99.9766 75.5313 100.461 77.1797L98.4687 77.6328ZM112.445 75.4844C111.922 73.7344 111.383 70.1797 111.359 70.0313L113.398 69.7734C113.406 69.8125 113.828 73.5 114.312 75.1484L112.445 75.4844Z" fill="#D7578A"/>
<path d="M97.3123 77.7113C96.8592 74.305 92.2185 59.9457 100.969 58.7347C107.804 57.7894 110.75 71.93 111.148 75.0941" stroke="#FF9F9F" stroke-width="1.17188" stroke-miterlimit="10"/>
<path d="M74.6641 117.797L82.0781 111.516L89.1719 123.875L86.0703 104.547L86.1016 74.7344L85.2266 74.375L82.4609 104.68L74.6641 117.797Z" fill="#AB2C5E"/>
<path d="M52.0619 57.8203C51.476 53.3828 50.4838 45.5624 51.1401 41.2578C51.7963 36.9531 53.5151 32.9843 57.101 31.414C60.2026 30.0624 64.0697 31.4921 66.3041 34.8359C67.5776 36.7421 68.3041 39.0937 68.9213 41.4218C69.976 45.4218 70.9838 50.8906 71.4916 55.0078" stroke="#00796B" stroke-width="1.17188" stroke-miterlimit="10"/>
<path d="M54.9922 118.125L36.1094 110.258L40.4922 90.9297L39.5547 46.8828L87.3359 41.2734V45.4453L98.7031 46.8828L54.9922 118.125Z" fill="#26A69A"/>
<path d="M102.758 110.938L54.9844 118.172L50.9219 92.875V54.1094L98.7031 46.8828V85.6406L102.758 110.938Z" fill="#61DE9F"/>
<path d="M50.9219 54.1094V49.75L39.5547 46.8828L87.4297 41.5703L88.9609 44.9609L98.7031 46.8828L50.9219 54.1094Z" fill="#263238"/>
<path d="M36.1094 110.258C36.4375 110.258 47.4219 101.547 47.4219 101.547L54.9844 118.172L53.3594 91.6641L50.8984 54.1094L47.7031 94.6953L36.1094 110.258Z" fill="#00796B"/>
<path d="M87.2891 42.0703L88.4453 44.7422L88.5938 45.0938L88.9609 45.1875L94.7812 46.6797L51.7031 53.2031V49.1406L51.1094 48.9922L43.8594 47.1641L87.2891 42.0703ZM87.7812 41.2266L39.5625 46.8828L50.9297 49.75V54.1172L98.7031 46.8828L89.1641 44.4297L87.7812 41.2266Z" fill="#26A69A"/>
<path d="M65.3353 57.0386C64.7494 52.6089 58.6478 35.5933 70.3275 33.4214C79.1556 31.7808 83.0541 50.5855 83.5697 54.7105" stroke="#61DE9F" stroke-width="1.17188" stroke-miterlimit="10"/>
<path d="M66.7891 58.2734C66.1094 55.9844 65.3984 51.3594 65.3672 51.1562L67.6797 50.8047C67.6875 50.8516 68.5156 55.5703 69.4219 57.7812L66.7891 58.2734ZM85.0078 55.5C84.3281 53.2109 83.6172 48.5859 83.5859 48.3828L85.8984 48.0312C85.9062 48.0781 86.8672 52.875 87.6719 55.0156L85.0078 55.5ZM67.5937 116.266L74.1562 104.898L71.0234 74.5937L97.25 69.4922L83.1875 113.937L67.5937 116.266Z" fill="#26A69A"/>
<path d="M88.0856 71.57C88.0856 71.57 85.1325 55.8903 94.9684 56.9293C100.32 57.4918 100.101 69.9371 100.101 69.9371" stroke="#D7578A" stroke-width="1.17188" stroke-miterlimit="10"/>
<path d="M89.1719 123.867L74.6641 117.797L78.0391 102.937L77.3203 69.0781L114.039 64.7656V67.9766L122.773 69.0781L89.1719 123.867Z" fill="#D7578A"/>
<path d="M125.891 118.312L89.1719 123.875L86.0547 104.43V74.6406L122.773 69.0781V98.875L125.891 118.312Z" fill="#FF9F9F"/>
<path d="M86.0547 74.6406L83.1172 72.3906L77.3203 69.0781L114.039 64.7656L117.375 66.8672L122.773 69.0781L86.0547 74.6406Z" fill="#263238"/>
<path d="M113.898 65.5703L120.188 68.6719L86.2188 73.8125L79.5859 69.5938L113.898 65.5703ZM114.039 64.7656L77.3203 69.0781L86.0547 74.6406L122.773 69.0781L114.039 64.7656Z" fill="#D7578A"/>
<path d="M98.4687 77.6328C97.9453 75.8828 97.4062 72.3281 97.3828 72.1797L99.4453 71.9141C99.4531 71.9531 99.9766 75.5313 100.461 77.1797L98.4687 77.6328ZM112.445 75.4844C111.922 73.7344 111.383 70.1797 111.359 70.0313L113.398 69.7734C113.406 69.8125 113.828 73.5 114.312 75.1484L112.445 75.4844Z" fill="#D7578A"/>
<path d="M97.3123 77.7113C96.8592 74.305 92.2185 59.9457 100.969 58.7347C107.804 57.7894 110.75 71.93 111.148 75.0941" stroke="#FF9F9F" stroke-width="1.17188" stroke-miterlimit="10"/>
<path d="M74.6641 117.797L82.0781 111.516L89.1719 123.875L86.0703 104.547L86.1016 74.7344L85.2266 74.375L82.4609 104.68L74.6641 117.797Z" fill="#AB2C5E"/>
<defs>
<filter id="filter0_d_4118_14660" x="0" y="0" width="162" height="162" filterUnits="userSpaceOnUse" color-interpolation-filters="sRGB">
<feFlood flood-opacity="0" result="BackgroundImageFix"/>
<feColorMatrix in="SourceAlpha" type="matrix" values="0 0 0 0 0 0 0 0 0 0 0 0 0 0 0 0 0 0 127 0" result="hardAlpha"/>
<feOffset dy="4"/>
<feGaussianBlur stdDeviation="2"/>
<feComposite in2="hardAlpha" operator="out"/>
<feColorMatrix type="matrix" values="0 0 0 0 0 0 0 0 0 0 0 0 0 0 0 0 0 0 0.25 0"/>
<feBlend mode="normal" in2="BackgroundImageFix" result="effect1_dropShadow_4118_14660"/>
<feBlend mode="normal" in="SourceGraphic" in2="effect1_dropShadow_4118_14660" result="shape"/>
</filter>
<filter id="filter1_d_4118_14660" x="0" y="0" width="162" height="162" filterUnits="userSpaceOnUse" color-interpolation-filters="sRGB">
<feFlood flood-opacity="0" result="BackgroundImageFix"/>
<feColorMatrix in="SourceAlpha" type="matrix" values="0 0 0 0 0 0 0 0 0 0 0 0 0 0 0 0 0 0 127 0" result="hardAlpha"/>
<feOffset dy="4"/>
<feGaussianBlur stdDeviation="2"/>
<feComposite in2="hardAlpha" operator="out"/>
<feColorMatrix type="matrix" values="0 0 0 0 0 0 0 0 0 0 0 0 0 0 0 0 0 0 0.25 0"/>
<feBlend mode="normal" in2="BackgroundImageFix" result="effect1_dropShadow_4118_14660"/>
<feBlend mode="normal" in="SourceGraphic" in2="effect1_dropShadow_4118_14660" result="shape"/>
</filter>
<linearGradient id="paint0_linear_4118_14660" x1="81" y1="2" x2="81" y2="152" gradientUnits="userSpaceOnUse">
<stop stop-color="#61DE9F"/>
<stop offset="1" stop-color="#FF9F9F"/>
</linearGradient>
<linearGradient id="paint1_linear_4118_14660" x1="81" y1="2" x2="81" y2="152" gradientUnits="userSpaceOnUse">
<stop stop-color="#61DE9F"/>
<stop offset="1" stop-color="#FF9F9F"/>
</linearGradient>
</defs>
</svg>
