<svg width="77" height="77" viewBox="0 0 77 77" fill="none" xmlns="http://www.w3.org/2000/svg">
<path d="M26.5 47.375L20.25 53.5V35.9167H26.5M36.9167 43.5417L33.6458 40.75L30.6667 43.5V27.5833H36.9167M47.3333 40.0833L41.0833 46.3333V19.25H47.3333M53.1875 39.6875L49.4167 35.9167H59.8333V46.3333L56.1042 42.6042L41.0833 57.5L33.8542 51.2083L25.9792 58.8333H20.25L33.7292 45.625L41.0833 51.8333" fill="#CA000F"/>
<path d="M1.5 20C1.5 9.78273 9.78273 1.5 20 1.5H57C67.2173 1.5 75.5 9.78273 75.5 20V57C75.5 67.2173 67.2173 75.5 57 75.5H20C9.78273 75.5 1.5 67.2173 1.5 57V20Z" stroke="#CA000F" stroke-width="3"/>
</svg>
