<svg width="77" height="77" viewBox="0 0 77 77" fill="none" xmlns="http://www.w3.org/2000/svg">
<path d="M37.2188 21.3789L48.8868 30.6229L51.1768 38.0009L40.2618 40.0859L27.5898 28.5319L30.2818 23.0019L37.2188 21.3789Z" stroke="#CA000F" stroke-width="4" stroke-linejoin="round"/>
<path d="M30.2803 23.002L41.4863 32.602" stroke="#CA000F" stroke-width="4" stroke-linecap="round"/>
<path d="M40.263 40.086L41.487 32.133L48.887 30.623M39.993 45.024L42.279 52.104L30.601 54.38L19 43.015L21.57 36.626L27.028 35.355" stroke="#CA000F" stroke-width="4" stroke-linecap="round" stroke-linejoin="round"/>
<path d="M21.5703 36.625L32.2843 46.758" stroke="#CA000F" stroke-width="4" stroke-linecap="round"/>
<path d="M30.6006 53.8659L32.4856 46.1329L39.9906 45.0449" stroke="#CA000F" stroke-width="4" stroke-linecap="round" stroke-linejoin="round"/>
<path d="M49.887 43.6085L49 50.8005L58.236 48.9995L56.281 42.1875L49.887 43.6085Z" stroke="#CA000F" stroke-width="4" stroke-linejoin="round"/>
<path d="M1.5 20C1.5 9.78273 9.78273 1.5 20 1.5H57C67.2173 1.5 75.5 9.78273 75.5 20V57C75.5 67.2173 67.2173 75.5 57 75.5H20C9.78273 75.5 1.5 67.2173 1.5 57V20Z" stroke="#CA000F" stroke-width="3"/>
</svg>
