<svg width="13" height="13" viewBox="0 0 13 13" fill="none" xmlns="http://www.w3.org/2000/svg">
<path d="M6.38824 0.404297C7.21336 0.404297 8.00469 0.732324 8.58813 1.31622C9.17158 1.90011 9.49936 2.69204 9.49936 3.51778C9.49936 4.34353 9.17158 5.13546 8.58813 5.71935C8.00469 6.30324 7.21336 6.63127 6.38824 6.63127C5.56313 6.63127 4.7718 6.30324 4.18835 5.71935C3.60491 5.13546 3.27713 4.34353 3.27713 3.51778C3.27713 2.69204 3.60491 1.90011 4.18835 1.31622C4.7718 0.732324 5.56313 0.404297 6.38824 0.404297ZM6.38824 8.18801C9.82603 8.18801 12.6105 9.5813 12.6105 11.3015V12.8582H0.166016V11.3015C0.166016 9.5813 2.95046 8.18801 6.38824 8.18801Z" fill="#F0F0F0"/>
</svg>
