<svg xmlns="http://www.w3.org/2000/svg" version="1.1" xmlns:xlink="http://www.w3.org/1999/xlink" xmlns:svgjs="http://svgjs.com/svgjs" width="512" height="512" x="0" y="0" viewBox="0 0 25 25" style="enable-background:new 0 0 512 512" xml:space="preserve" class=""><g><g id="Layer_14" data-name="Layer 14"><path d="m12.5 12a5 5 0 1 0 -5-5 5 5 0 0 0 5 5zm0-9a4 4 0 1 1 -4 4 4 4 0 0 1 4-4z" fill="#d45d01" data-original="#000000" class=""></path><path d="m13.56 13h-2.12a9.47 9.47 0 0 0 -9.44 9.5.5.5 0 0 0 .5.5h20a.55.55 0 0 0 .5-.56 9.46 9.46 0 0 0 -9.44-9.44zm-10.56 9a8.46 8.46 0 0 1 8.43-8h2.12a8.46 8.46 0 0 1 8.45 8z" fill="#d45d01" data-original="#000000" class=""></path></g></g></svg>